# Wavefront OBJ file
# Exported by Misfit Model 3D 1.3.8
# Sat Jun 04 09:07:26 2016

mtllib warppipe.mtl

# 97 Vertices
v 3.024999 8.0 0.0
v -0.0 8.0 0.0
v 2.794735 8.0 -1.157617
v 2.138997 8.0 -2.138998
v 1.157617 8.0 -2.794735
v -0.0 8.0 -3.024999
v -1.157617 8.0 -2.794735
v -2.138998 8.0 -2.138997
v -2.794735 8.0 -1.157616
v -3.024999 8.0 0.000001
v 2.794735 8.0 1.157615
v -2.794735 8.0 1.157618
v -2.138997 8.0 2.138998
v 2.138998 8.0 2.138996
v -1.157616 8.0 2.794735
v 0.000001 8.0 3.024999
v 1.157618 8.0 2.794734
v 0.000001 10.0 3.024999
v 1.157618 10.0 2.794734
v 3.024999 10.0 0.0
v 2.794735 10.0 -1.157617
v 4.0 0.0 0.0
v 4.0 6.0 0.0
v 3.695518 6.0 -1.530734
v 3.695518 0.0 -1.530734
v 5.0 5.0 0.0
v 5.0 10.0 0.0
v 4.619397 10.0 -1.913417
v 4.619397 5.0 -1.913417
v -3.024999 10.0 0.000001
v -2.794735 10.0 1.157618
v -2.138997 10.0 2.138998
v 2.828427 6.0 -2.828427
v 2.828427 0.0 -2.828427
v 3.535534 10.0 -3.535534
v 3.535534 5.0 -3.535534
v 2.138997 10.0 -2.138998
v 1.157617 10.0 -2.794735
v 1.530734 6.0 -3.695518
v 1.530734 0.0 -3.695518
v 1.913417 10.0 -4.619397
v 1.913417 5.0 -4.619397
v 2.138998 10.0 2.138996
v -0.0 10.0 -3.024999
v -0.0 6.0 -4.0
v -0.0 0.0 -4.0
v -0.0 10.0 -5.0
v -0.0 5.0 -5.0
v -1.157616 10.0 2.794735
v -1.157617 10.0 -2.794735
v -1.530734 6.0 -3.695518
v -1.530734 0.0 -3.695518
v -1.913418 10.0 -4.619397
v -1.913418 5.0 -4.619397
v 2.794735 10.0 1.157615
v -2.138998 10.0 -2.138997
v -2.828428 6.0 -2.828427
v -2.828428 0.0 -2.828427
v -3.535534 10.0 -3.535533
v -3.535534 5.0 -3.535533
v -2.794735 10.0 -1.157616
v -3.695518 6.0 -1.530733
v -3.695518 0.0 -1.530733
v -4.619398 10.0 -1.913416
v -4.619398 5.0 -1.913416
v -4.0 6.0 0.000001
v -4.0 0.0 0.000001
v -5.0 10.0 0.000001
v -5.0 5.0 0.000001
v 4.619398 10.0 1.913414
v -3.695518 6.0 1.530735
v -3.695518 0.0 1.530735
v -4.619397 10.0 1.913419
v -4.619397 5.0 1.913419
v 4.619398 5.0 1.913414
v 3.695519 0.0 1.530732
v 3.695519 6.0 1.530732
v -2.828426 6.0 2.828428
v -2.828426 0.0 2.828428
v -3.535532 10.0 3.535535
v -3.535532 5.0 3.535535
v 3.535535 10.0 3.535532
v -1.530732 6.0 3.695519
v -1.530732 0.0 3.695519
v -1.913415 10.0 4.619398
v -1.913415 5.0 4.619398
v 3.535535 5.0 3.535532
v 2.828429 0.0 2.828426
v 2.828429 6.0 2.828426
v 0.000002 6.0 4.0
v 0.000002 0.0 4.0
v 0.000002 10.0 5.0
v 0.000002 5.0 5.0
v 1.913419 10.0 4.619396
v 1.530735 6.0 3.695517
v 1.530735 0.0 3.695517
v 1.913419 5.0 4.619396

# 432 Texture Coordinates
vt 0.779473 0.8
vt 0.5 0.8
vt 0.8025 0.8
vt 0.7139 0.8
vt 0.5 0.8
vt 0.779473 0.8
vt 0.615762 0.8
vt 0.5 0.8
vt 0.7139 0.8
vt 0.5 0.8
vt 0.5 0.8
vt 0.615762 0.8
vt 0.384238 0.8
vt 0.5 0.8
vt 0.5 0.8
vt 0.2861 0.8
vt 0.5 0.8
vt 0.384238 0.8
vt 0.220526 0.8
vt 0.5 0.8
vt 0.2861 0.8
vt 0.1975 0.8
vt 0.5 0.8
vt 0.220526 0.8
vt 0.8025 0.8
vt 0.5 0.8
vt 0.779473 0.8
vt 0.220526 0.8
vt 0.5 0.8
vt 0.1975 0.8
vt 0.2861 0.8
vt 0.5 0.8
vt 0.220526 0.8
vt 0.779473 0.8
vt 0.5 0.8
vt 0.7139 0.8
vt 0.384238 0.8
vt 0.5 0.8
vt 0.2861 0.8
vt 0.5 0.8
vt 0.5 0.8
vt 0.384238 0.8
vt 0.7139 0.8
vt 0.5 0.8
vt 0.615762 0.8
vt 0.615762 0.8
vt 0.5 0.8
vt 0.5 0.8
vt 0.615762 0.8
vt 0.5 0.8
vt 0.5 0.90625
vt 0.615762 0.90625
vt 0.615762 0.8
vt 0.5 0.90625
vt 0.779473 0.8
vt 0.8025 0.8
vt 0.8025 0.90625
vt 0.779473 0.90625
vt 0.779473 0.8
vt 0.8025 0.90625
vt 0.898834 0.512857
vt 0.898438 0.315104
vt 0.471354 0.315104
vt 0.472426 0.512868
vt 0.898834 0.512857
vt 0.471354 0.315104
vt 0.96194 0.96875
vt 1.0 0.96875
vt 1.0 0.03125
vt 0.96194 0.03125
vt 0.96194 0.96875
vt 1.0 0.03125
vt 0.779473 0.6875
vt 0.8025 0.6875
vt 1.0 0.6875
vt 0.96194 0.6875
vt 0.779473 0.6875
vt 1.0 0.6875
vt 0.220526 0.8
vt 0.1975 0.8
vt 0.1975 0.90625
vt 0.220527 0.90625
vt 0.220526 0.8
vt 0.1975 0.90625
vt 0.2861 0.8
vt 0.220526 0.8
vt 0.220527 0.90625
vt 0.2861 0.90625
vt 0.2861 0.8
vt 0.220527 0.90625
vt 0.898834 0.512857
vt 0.898438 0.315104
vt 0.471354 0.315104
vt 0.472426 0.512868
vt 0.898834 0.512857
vt 0.471354 0.315104
vt 0.853553 0.96875
vt 0.96194 0.96875
vt 0.96194 0.03125
vt 0.853553 0.03125
vt 0.853553 0.96875
vt 0.96194 0.03125
vt 0.7139 0.6875
vt 0.779473 0.6875
vt 0.96194 0.6875
vt 0.853553 0.6875
vt 0.7139 0.6875
vt 0.96194 0.6875
vt 0.7139 0.8
vt 0.779473 0.8
vt 0.779473 0.90625
vt 0.7139 0.90625
vt 0.7139 0.8
vt 0.779473 0.90625
vt 0.615762 0.8
vt 0.7139 0.8
vt 0.7139 0.90625
vt 0.615762 0.90625
vt 0.615762 0.8
vt 0.7139 0.90625
vt 0.898834 0.512857
vt 0.898438 0.315104
vt 0.471354 0.315104
vt 0.472426 0.512868
vt 0.898834 0.512857
vt 0.471354 0.315104
vt 0.691342 0.96875
vt 0.853553 0.96875
vt 0.853553 0.03125
vt 0.691342 0.03125
vt 0.691342 0.96875
vt 0.853553 0.03125
vt 0.615762 0.6875
vt 0.7139 0.6875
vt 0.853553 0.6875
vt 0.691342 0.6875
vt 0.615762 0.6875
vt 0.853553 0.6875
vt 0.7139 0.8
vt 0.615762 0.8
vt 0.615762 0.90625
vt 0.7139 0.90625
vt 0.7139 0.8
vt 0.615762 0.90625
vt 0.5 0.8
vt 0.615762 0.8
vt 0.615762 0.90625
vt 0.5 0.90625
vt 0.5 0.8
vt 0.615762 0.90625
vt 0.898834 0.512857
vt 0.898438 0.315104
vt 0.471354 0.315104
vt 0.472426 0.512868
vt 0.898834 0.512857
vt 0.471354 0.315104
vt 0.5 0.96875
vt 0.691342 0.96875
vt 0.691342 0.03125
vt 0.5 0.03125
vt 0.5 0.96875
vt 0.691342 0.03125
vt 0.5 0.6875
vt 0.615762 0.6875
vt 0.691342 0.6875
vt 0.5 0.6875
vt 0.5 0.6875
vt 0.691342 0.6875
vt 0.384238 0.8
vt 0.2861 0.8
vt 0.2861 0.90625
vt 0.384238 0.90625
vt 0.384238 0.8
vt 0.2861 0.90625
vt 0.384238 0.8
vt 0.5 0.8
vt 0.5 0.90625
vt 0.384238 0.90625
vt 0.384238 0.8
vt 0.5 0.90625
vt 0.898834 0.512857
vt 0.898438 0.315104
vt 0.471354 0.315104
vt 0.472426 0.512868
vt 0.898834 0.512857
vt 0.471354 0.315104
vt 0.308658 0.96875
vt 0.5 0.96875
vt 0.5 0.03125
vt 0.308658 0.03125
vt 0.308658 0.96875
vt 0.5 0.03125
vt 0.384238 0.6875
vt 0.5 0.6875
vt 0.5 0.6875
vt 0.308658 0.6875
vt 0.384238 0.6875
vt 0.5 0.6875
vt 0.8025 0.8
vt 0.779473 0.8
vt 0.779473 0.90625
vt 0.8025 0.90625
vt 0.8025 0.8
vt 0.779473 0.90625
vt 0.2861 0.8
vt 0.384238 0.8
vt 0.384238 0.90625
vt 0.2861 0.90625
vt 0.2861 0.8
vt 0.384238 0.90625
vt 0.898834 0.512857
vt 0.898438 0.315104
vt 0.471354 0.315104
vt 0.472426 0.512868
vt 0.898834 0.512857
vt 0.471354 0.315104
vt 0.146447 0.96875
vt 0.308658 0.96875
vt 0.308658 0.03125
vt 0.146447 0.03125
vt 0.146447 0.96875
vt 0.308658 0.03125
vt 0.2861 0.6875
vt 0.384238 0.6875
vt 0.308658 0.6875
vt 0.146447 0.6875
vt 0.2861 0.6875
vt 0.308658 0.6875
vt 0.5 0.8
vt 0.384238 0.8
vt 0.384238 0.90625
vt 0.5 0.90625
vt 0.5 0.8
vt 0.384238 0.90625
vt 0.220526 0.8
vt 0.2861 0.8
vt 0.2861 0.90625
vt 0.220527 0.90625
vt 0.220526 0.8
vt 0.2861 0.90625
vt 0.898834 0.512857
vt 0.898438 0.315104
vt 0.471354 0.315104
vt 0.472426 0.512868
vt 0.898834 0.512857
vt 0.471354 0.315104
vt 0.03806 0.96875
vt 0.146447 0.96875
vt 0.146447 0.03125
vt 0.03806 0.03125
vt 0.03806 0.96875
vt 0.146447 0.03125
vt 0.220526 0.6875
vt 0.2861 0.6875
vt 0.146447 0.6875
vt 0.03806 0.6875
vt 0.220526 0.6875
vt 0.146447 0.6875
vt 0.779473 0.8
vt 0.7139 0.8
vt 0.7139 0.90625
vt 0.779473 0.90625
vt 0.779473 0.8
vt 0.7139 0.90625
vt 0.1975 0.8
vt 0.220526 0.8
vt 0.220527 0.90625
vt 0.1975 0.90625
vt 0.1975 0.8
vt 0.220527 0.90625
vt 0.898834 0.512857
vt 0.898438 0.315104
vt 0.471354 0.315104
vt 0.472426 0.512868
vt 0.898834 0.512857
vt 0.471354 0.315104
vt 0.0 0.96875
vt 0.03806 0.96875
vt 0.03806 0.03125
vt 0.0 0.03125
vt 0.0 0.96875
vt 0.03806 0.03125
vt 0.1975 0.6875
vt 0.220526 0.6875
vt 0.03806 0.6875
vt 0.0 0.6875
vt 0.1975 0.6875
vt 0.03806 0.6875
vt 0.8025 0.6875
vt 0.779473 0.6875
vt 0.96194 0.6875
vt 1.0 0.6875
vt 0.8025 0.6875
vt 0.96194 0.6875
vt 0.898834 0.512857
vt 0.898438 0.315104
vt 0.471354 0.315104
vt 0.472426 0.512868
vt 0.898834 0.512857
vt 0.471354 0.315104
vt 0.03806 0.96875
vt 0.0 0.96875
vt 0.0 0.03125
vt 0.03806 0.03125
vt 0.03806 0.96875
vt 0.0 0.03125
vt 0.220526 0.6875
vt 0.1975 0.6875
vt 0.0 0.6875
vt 0.03806 0.6875
vt 0.220526 0.6875
vt 0.0 0.6875
vt 1.0 0.96875
vt 0.96194 0.96875
vt 0.96194 0.03125
vt 1.0 0.03125
vt 1.0 0.96875
vt 0.96194 0.03125
vt 0.898834 0.512857
vt 0.898438 0.315104
vt 0.471354 0.315104
vt 0.472426 0.512868
vt 0.898834 0.512857
vt 0.471354 0.315104
vt 0.898834 0.512857
vt 0.898438 0.315104
vt 0.471354 0.315104
vt 0.472426 0.512868
vt 0.898834 0.512857
vt 0.471354 0.315104
vt 0.146447 0.96875
vt 0.03806 0.96875
vt 0.03806 0.03125
vt 0.146447 0.03125
vt 0.146447 0.96875
vt 0.03806 0.03125
vt 0.2861 0.6875
vt 0.220526 0.6875
vt 0.03806 0.6875
vt 0.146447 0.6875
vt 0.2861 0.6875
vt 0.03806 0.6875
vt 0.779473 0.6875
vt 0.7139 0.6875
vt 0.853553 0.6875
vt 0.96194 0.6875
vt 0.779473 0.6875
vt 0.853553 0.6875
vt 0.898834 0.512857
vt 0.898438 0.315104
vt 0.471354 0.315104
vt 0.472426 0.512868
vt 0.898834 0.512857
vt 0.471354 0.315104
vt 0.308658 0.96875
vt 0.146447 0.96875
vt 0.146447 0.03125
vt 0.308658 0.03125
vt 0.308658 0.96875
vt 0.146447 0.03125
vt 0.384238 0.6875
vt 0.2861 0.6875
vt 0.146447 0.6875
vt 0.308658 0.6875
vt 0.384238 0.6875
vt 0.146447 0.6875
vt 0.96194 0.96875
vt 0.853553 0.96875
vt 0.853553 0.03125
vt 0.96194 0.03125
vt 0.96194 0.96875
vt 0.853553 0.03125
vt 0.898834 0.512857
vt 0.898438 0.315104
vt 0.471354 0.315104
vt 0.472426 0.512868
vt 0.898834 0.512857
vt 0.471354 0.315104
vt 0.898834 0.512857
vt 0.898438 0.315104
vt 0.471354 0.315104
vt 0.472426 0.512868
vt 0.898834 0.512857
vt 0.471354 0.315104
vt 0.5 0.96875
vt 0.308658 0.96875
vt 0.308658 0.03125
vt 0.5 0.03125
vt 0.5 0.96875
vt 0.308658 0.03125
vt 0.5 0.6875
vt 0.384238 0.6875
vt 0.308658 0.6875
vt 0.5 0.6875
vt 0.5 0.6875
vt 0.308658 0.6875
vt 0.7139 0.6875
vt 0.615762 0.6875
vt 0.691342 0.6875
vt 0.853553 0.6875
vt 0.7139 0.6875
vt 0.691342 0.6875
vt 0.898834 0.512857
vt 0.898438 0.315104
vt 0.471354 0.315104
vt 0.472426 0.512868
vt 0.898834 0.512857
vt 0.471354 0.315104
vt 0.691342 0.96875
vt 0.5 0.96875
vt 0.5 0.03125
vt 0.691342 0.03125
vt 0.691342 0.96875
vt 0.5 0.03125
vt 0.615762 0.6875
vt 0.5 0.6875
vt 0.5 0.6875
vt 0.691342 0.6875
vt 0.615762 0.6875
vt 0.5 0.6875
vt 0.853553 0.96875
vt 0.691342 0.96875
vt 0.691342 0.03125
vt 0.853553 0.03125
vt 0.853553 0.96875
vt 0.691342 0.03125
vt 0.898834 0.512857
vt 0.898438 0.315104
vt 0.471354 0.315104
vt 0.472426 0.512868
vt 0.898834 0.512857
vt 0.471354 0.315104

# 432 Vertex Normals
vn 0.0 1.0 0.0
vn 0.0 1.0 0.0
vn 0.0 1.0 0.0
vn 0.0 1.0 0.0
vn 0.0 1.0 0.0
vn 0.0 1.0 0.0
vn 0.0 1.0 0.0
vn 0.0 1.0 0.0
vn 0.0 1.0 0.0
vn 0.0 1.0 0.0
vn 0.0 1.0 0.0
vn 0.0 1.0 0.0
vn 0.0 1.0 0.0
vn 0.0 1.0 0.0
vn 0.0 1.0 0.0
vn 0.0 1.0 0.0
vn 0.0 1.0 0.0
vn 0.0 1.0 0.0
vn 0.0 1.0 0.0
vn 0.0 1.0 0.0
vn 0.0 1.0 0.0
vn 0.0 1.0 0.0
vn 0.0 1.0 0.0
vn 0.0 1.0 0.0
vn 0.0 1.0 0.0
vn 0.0 1.0 0.0
vn 0.0 1.0 0.0
vn 0.0 1.0 0.0
vn 0.0 1.0 0.0
vn 0.0 1.0 0.0
vn 0.0 1.0 0.0
vn 0.0 1.0 0.0
vn 0.0 1.0 0.0
vn 0.0 1.0 0.0
vn 0.0 1.0 0.0
vn 0.0 1.0 0.0
vn 0.0 1.0 0.0
vn 0.0 1.0 0.0
vn 0.0 1.0 0.0
vn 0.0 1.0 0.0
vn 0.0 1.0 0.0
vn 0.0 1.0 0.0
vn 0.0 1.0 0.0
vn 0.0 1.0 0.0
vn 0.0 1.0 0.0
vn 0.0 1.0 0.0
vn 0.0 1.0 0.0
vn 0.0 1.0 0.0
vn -0.320723 -0.0 -0.947173
vn 0.066158 -0.0 -0.997809
vn -0.066159 -0.0 -0.997809
vn -0.442968 -0.0 -0.896537
vn -0.320723 -0.0 -0.947173
vn -0.066159 -0.0 -0.997809
vn -0.947173 -0.0 0.320722
vn -0.997809 0.0 -0.066159
vn -0.997809 0.0 0.066159
vn -0.896538 -0.0 0.442968
vn -0.947173 -0.0 0.320722
vn -0.997809 0.0 0.066159
vn 0.947173 0.0 -0.320722
vn 0.997809 0.0 0.066159
vn 0.997809 0.0 -0.066159
vn 0.896538 0.0 -0.442968
vn 0.947173 0.0 -0.320722
vn 0.997809 0.0 -0.066159
vn 0.947173 0.0 -0.320722
vn 0.997809 -0.0 0.066159
vn 0.997809 0.0 -0.066159
vn 0.896537 0.0 -0.442968
vn 0.947173 0.0 -0.320722
vn 0.997809 0.0 -0.066159
vn -0.0 1.0 0.0
vn 0.0 1.0 0.0
vn 0.0 1.0 0.0
vn -0.0 1.0 0.0
vn -0.0 1.0 0.0
vn 0.0 1.0 0.0
vn 0.947173 -0.0 -0.320722
vn 0.997809 -0.0 0.066159
vn 0.997809 -0.0 -0.066159
vn 0.896537 0.0 -0.442968
vn 0.947173 -0.0 -0.320722
vn 0.997809 -0.0 -0.066159
vn 0.752339 0.0 -0.658776
vn 0.947173 -0.0 -0.320722
vn 0.896537 0.0 -0.442968
vn 0.658776 -0.0 -0.752339
vn 0.752339 0.0 -0.658776
vn 0.896537 0.0 -0.442968
vn 0.752339 0.0 -0.658776
vn 0.947173 0.0 -0.320722
vn 0.896538 0.0 -0.442968
vn 0.658776 0.0 -0.752339
vn 0.752339 0.0 -0.658776
vn 0.896538 0.0 -0.442968
vn 0.752339 0.0 -0.658776
vn 0.947173 0.0 -0.320722
vn 0.896537 0.0 -0.442968
vn 0.658776 0.0 -0.752339
vn 0.752339 0.0 -0.658776
vn 0.896537 0.0 -0.442968
vn -0.0 1.0 0.0
vn -0.0 1.0 0.0
vn -0.0 1.0 0.0
vn 0.0 1.0 0.0
vn -0.0 1.0 0.0
vn -0.0 1.0 0.0
vn -0.752339 -0.0 0.658776
vn -0.947173 -0.0 0.320722
vn -0.896538 -0.0 0.442968
vn -0.658776 0.0 0.752339
vn -0.752339 -0.0 0.658776
vn -0.896538 -0.0 0.442968
vn -0.442968 0.0 0.896538
vn -0.752339 -0.0 0.658776
vn -0.658776 0.0 0.752339
vn -0.320722 0.0 0.947173
vn -0.442968 0.0 0.896538
vn -0.658776 0.0 0.752339
vn 0.442968 0.0 -0.896538
vn 0.752339 0.0 -0.658776
vn 0.658776 0.0 -0.752339
vn 0.320722 0.0 -0.947173
vn 0.442968 0.0 -0.896538
vn 0.658776 0.0 -0.752339
vn 0.442968 0.0 -0.896538
vn 0.752339 0.0 -0.658776
vn 0.658776 0.0 -0.752339
vn 0.320722 -0.0 -0.947173
vn 0.442968 0.0 -0.896538
vn 0.658776 0.0 -0.752339
vn 0.0 1.0 0.0
vn -0.0 1.0 0.0
vn 0.0 1.0 0.0
vn 0.0 1.0 0.0
vn 0.0 1.0 0.0
vn 0.0 1.0 0.0
vn -0.658777 -0.0 -0.752339
vn -0.320723 -0.0 -0.947173
vn -0.442968 -0.0 -0.896537
vn -0.752339 0.0 -0.658776
vn -0.658777 -0.0 -0.752339
vn -0.442968 -0.0 -0.896537
vn -0.066159 -0.0 0.997809
vn -0.442968 0.0 0.896538
vn -0.320722 0.0 0.947173
vn 0.066159 -0.0 0.997809
vn -0.066159 -0.0 0.997809
vn -0.320722 0.0 0.947173
vn 0.066159 -0.0 -0.997809
vn 0.442968 0.0 -0.896538
vn 0.320722 0.0 -0.947173
vn -0.066159 -0.0 -0.997809
vn 0.066159 -0.0 -0.997809
vn 0.320722 0.0 -0.947173
vn 0.066159 -0.0 -0.997809
vn 0.442968 0.0 -0.896538
vn 0.320722 -0.0 -0.947173
vn -0.066159 0.0 -0.997809
vn 0.066159 -0.0 -0.997809
vn 0.320722 -0.0 -0.947173
vn 0.0 1.0 0.0
vn 0.0 1.0 0.0
vn 0.0 1.0 0.0
vn -0.0 1.0 0.0
vn 0.0 1.0 0.0
vn 0.0 1.0 0.0
vn 0.442967 0.0 -0.896538
vn 0.752339 0.0 -0.658776
vn 0.658776 -0.0 -0.752339
vn 0.320722 0.0 -0.947173
vn 0.442967 0.0 -0.896538
vn 0.658776 -0.0 -0.752339
vn 0.320722 -0.0 0.947173
vn -0.066159 -0.0 0.997809
vn 0.066159 -0.0 0.997809
vn 0.442968 0.0 0.896537
vn 0.320722 -0.0 0.947173
vn 0.066159 -0.0 0.997809
vn -0.320722 -0.0 -0.947173
vn 0.066159 -0.0 -0.997809
vn -0.066159 -0.0 -0.997809
vn -0.442968 -0.0 -0.896537
vn -0.320722 -0.0 -0.947173
vn -0.066159 -0.0 -0.997809
vn -0.320722 0.0 -0.947173
vn 0.066159 -0.0 -0.997809
vn -0.066159 0.0 -0.997809
vn -0.442968 0.0 -0.896537
vn -0.320722 0.0 -0.947173
vn -0.066159 0.0 -0.997809
vn -0.0 1.0 0.0
vn 0.0 1.0 0.0
vn -0.0 1.0 0.0
vn -0.0 1.0 0.0
vn -0.0 1.0 0.0
vn -0.0 1.0 0.0
vn -0.997809 0.0 -0.066159
vn -0.896538 0.0 -0.442967
vn -0.947173 0.0 -0.320722
vn -0.997809 0.0 0.066159
vn -0.997809 0.0 -0.066159
vn -0.947173 0.0 -0.320722
vn 0.658776 -0.0 0.752339
vn 0.320722 -0.0 0.947173
vn 0.442968 0.0 0.896537
vn 0.752339 -0.0 0.658776
vn 0.658776 -0.0 0.752339
vn 0.442968 0.0 0.896537
vn -0.658776 -0.0 -0.752339
vn -0.320722 -0.0 -0.947173
vn -0.442968 -0.0 -0.896537
vn -0.752339 0.0 -0.658776
vn -0.658776 -0.0 -0.752339
vn -0.442968 -0.0 -0.896537
vn -0.658776 -0.0 -0.752339
vn -0.320722 0.0 -0.947173
vn -0.442968 0.0 -0.896537
vn -0.752339 -0.0 -0.658776
vn -0.658776 -0.0 -0.752339
vn -0.442968 0.0 -0.896537
vn 0.0 1.0 0.0
vn -0.0 1.0 0.0
vn -0.0 1.0 0.0
vn 0.0 1.0 0.0
vn 0.0 1.0 0.0
vn -0.0 1.0 0.0
vn 0.066158 -0.0 -0.997809
vn 0.442967 0.0 -0.896538
vn 0.320722 0.0 -0.947173
vn -0.066159 -0.0 -0.997809
vn 0.066158 -0.0 -0.997809
vn 0.320722 0.0 -0.947173
vn 0.896538 -0.0 0.442968
vn 0.658776 -0.0 0.752339
vn 0.752339 -0.0 0.658776
vn 0.947173 -0.0 0.320722
vn 0.896538 -0.0 0.442968
vn 0.752339 -0.0 0.658776
vn -0.896538 0.0 -0.442968
vn -0.658776 -0.0 -0.752339
vn -0.752339 0.0 -0.658776
vn -0.947173 0.0 -0.320722
vn -0.896538 0.0 -0.442968
vn -0.752339 0.0 -0.658776
vn -0.896538 -0.0 -0.442968
vn -0.658776 -0.0 -0.752339
vn -0.752339 -0.0 -0.658776
vn -0.947173 -0.0 -0.320722
vn -0.896538 -0.0 -0.442968
vn -0.752339 -0.0 -0.658776
vn 0.0 1.0 0.0
vn 0.0 1.0 0.0
vn 0.0 1.0 0.0
vn -0.0 1.0 0.0
vn 0.0 1.0 0.0
vn 0.0 1.0 0.0
vn -0.896538 0.0 -0.442967
vn -0.658777 -0.0 -0.752339
vn -0.752339 0.0 -0.658776
vn -0.947173 0.0 -0.320722
vn -0.896538 0.0 -0.442967
vn -0.752339 0.0 -0.658776
vn 0.997809 -0.0 0.066159
vn 0.896538 -0.0 0.442968
vn 0.947173 -0.0 0.320722
vn 0.997809 -0.0 -0.066159
vn 0.997809 -0.0 0.066159
vn 0.947173 -0.0 0.320722
vn -0.997809 0.0 -0.066159
vn -0.896538 0.0 -0.442968
vn -0.947173 0.0 -0.320722
vn -0.997809 -0.0 0.066159
vn -0.997809 0.0 -0.066159
vn -0.947173 0.0 -0.320722
vn -0.997809 -0.0 -0.066159
vn -0.896538 -0.0 -0.442968
vn -0.947173 -0.0 -0.320722
vn -0.997809 0.0 0.066159
vn -0.997809 -0.0 -0.066159
vn -0.947173 -0.0 -0.320722
vn -0.0 1.0 0.0
vn 0.0 1.0 0.0
vn -0.0 1.0 0.0
vn -0.0 1.0 0.0
vn -0.0 1.0 0.0
vn -0.0 1.0 0.0
vn 0.0 1.0 0.0
vn 0.0 1.0 0.0
vn 0.0 1.0 0.0
vn 0.0 1.0 0.0
vn 0.0 1.0 0.0
vn 0.0 1.0 0.0
vn -0.947173 -0.0 0.320722
vn -0.997809 0.0 -0.066159
vn -0.997809 -0.0 0.066159
vn -0.896537 0.0 0.442968
vn -0.947173 -0.0 0.320722
vn -0.997809 -0.0 0.066159
vn -0.947173 -0.0 0.320722
vn -0.997809 -0.0 -0.066159
vn -0.997809 0.0 0.066159
vn -0.896537 -0.0 0.442968
vn -0.947173 -0.0 0.320722
vn -0.997809 0.0 0.066159
vn -0.0 1.0 0.0
vn -0.0 1.0 0.0
vn -0.0 1.0 0.0
vn -0.0 1.0 0.0
vn -0.0 1.0 0.0
vn -0.0 1.0 0.0
vn 0.997809 -0.0 0.066159
vn 0.896538 0.0 0.442968
vn 0.947173 -0.0 0.320722
vn 0.997809 0.0 -0.066159
vn 0.997809 -0.0 0.066159
vn 0.947173 -0.0 0.320722
vn 0.997809 0.0 0.066159
vn 0.896538 -0.0 0.442968
vn 0.947173 0.0 0.320722
vn 0.997809 0.0 -0.066159
vn 0.997809 0.0 0.066159
vn 0.947173 0.0 0.320722
vn -0.752339 0.0 0.658776
vn -0.947173 -0.0 0.320722
vn -0.896537 0.0 0.442968
vn -0.658776 0.0 0.752339
vn -0.752339 0.0 0.658776
vn -0.896537 0.0 0.442968
vn -0.752339 -0.0 0.658776
vn -0.947173 -0.0 0.320722
vn -0.896537 -0.0 0.442968
vn -0.658776 -0.0 0.752339
vn -0.752339 -0.0 0.658776
vn -0.896537 -0.0 0.442968
vn -0.0 1.0 0.0
vn -0.0 1.0 0.0
vn -0.0 1.0 0.0
vn -0.0 1.0 0.0
vn -0.0 1.0 0.0
vn -0.0 1.0 0.0
vn 0.0 1.0 0.0
vn 0.0 1.0 0.0
vn 0.0 1.0 0.0
vn 0.0 1.0 0.0
vn 0.0 1.0 0.0
vn 0.0 1.0 0.0
vn -0.442968 -0.0 0.896538
vn -0.752339 0.0 0.658776
vn -0.658776 0.0 0.752339
vn -0.320722 -0.0 0.947173
vn -0.442968 -0.0 0.896538
vn -0.658776 0.0 0.752339
vn -0.442967 0.0 0.896538
vn -0.752339 -0.0 0.658776
vn -0.658776 -0.0 0.752339
vn -0.320722 0.0 0.947173
vn -0.442967 0.0 0.896538
vn -0.658776 -0.0 0.752339
vn -0.0 1.0 0.0
vn -0.0 1.0 0.0
vn -0.0 1.0 0.0
vn -0.0 1.0 0.0
vn -0.0 1.0 0.0
vn -0.0 1.0 0.0
vn 0.896538 0.0 0.442968
vn 0.658777 0.0 0.752339
vn 0.752339 0.0 0.658776
vn 0.947173 -0.0 0.320722
vn 0.896538 0.0 0.442968
vn 0.752339 0.0 0.658776
vn 0.896538 -0.0 0.442968
vn 0.658777 0.0 0.752339
vn 0.752339 -0.0 0.658776
vn 0.947173 0.0 0.320722
vn 0.896538 -0.0 0.442968
vn 0.752339 -0.0 0.658776
vn -0.066158 -0.0 0.997809
vn -0.442968 -0.0 0.896538
vn -0.320722 -0.0 0.947173
vn 0.066159 -0.0 0.997809
vn -0.066158 -0.0 0.997809
vn -0.320722 -0.0 0.947173
vn -0.066158 0.0 0.997809
vn -0.442967 0.0 0.896538
vn -0.320722 0.0 0.947173
vn 0.066159 0.0 0.997809
vn -0.066158 0.0 0.997809
vn -0.320722 0.0 0.947173
vn -0.0 1.0 0.0
vn -0.0 1.0 0.0
vn -0.0 1.0 0.0
vn -0.0 1.0 0.0
vn -0.0 1.0 0.0
vn -0.0 1.0 0.0
vn 0.0 1.0 0.0
vn -0.0 1.0 0.0
vn -0.0 1.0 0.0
vn 0.0 1.0 0.0
vn 0.0 1.0 0.0
vn -0.0 1.0 0.0
vn 0.320723 0.0 0.947173
vn -0.066158 -0.0 0.997809
vn 0.066159 -0.0 0.997809
vn 0.442968 0.0 0.896537
vn 0.320723 0.0 0.947173
vn 0.066159 -0.0 0.997809
vn 0.320723 0.0 0.947173
vn -0.066158 0.0 0.997809
vn 0.066159 0.0 0.997809
vn 0.442968 0.0 0.896537
vn 0.320723 0.0 0.947173
vn 0.066159 0.0 0.997809
vn -0.0 1.0 0.0
vn -0.0 1.0 0.0
vn -0.0 1.0 0.0
vn -0.0 1.0 0.0
vn -0.0 1.0 0.0
vn -0.0 1.0 0.0
vn 0.658777 0.0 0.752339
vn 0.320723 0.0 0.947173
vn 0.442968 0.0 0.896537
vn 0.752339 0.0 0.658776
vn 0.658777 0.0 0.752339
vn 0.442968 0.0 0.896537
vn 0.658777 0.0 0.752339
vn 0.320723 0.0 0.947173
vn 0.442968 0.0 0.896537
vn 0.752339 -0.0 0.658776
vn 0.658777 0.0 0.752339
vn 0.442968 0.0 0.896537

# mesh0164, 144 grouped triangles

usemtl mesh0164mat
o mesh0164
g mesh0164

f 3/1/1 2/2/2 1/3/3
f 4/4/4 2/5/5 3/6/6
f 5/7/7 2/8/8 4/9/9
f 6/10/10 2/11/11 5/12/12
f 7/13/13 2/14/14 6/15/15
f 8/16/16 2/17/17 7/18/18
f 9/19/19 2/20/20 8/21/21
f 10/22/22 2/23/23 9/24/24
f 1/25/25 2/26/26 11/27/27
f 12/28/28 2/29/29 10/30/30
f 13/31/31 2/32/32 12/33/33
f 11/34/34 2/35/35 14/36/36
f 15/37/37 2/38/38 13/39/39
f 16/40/40 2/41/41 15/42/42
f 14/43/43 2/44/44 17/45/45
f 17/46/46 2/47/47 16/48/48
f 17/49/49 16/50/50 18/51/51
f 19/52/52 17/53/53 18/54/54
f 3/55/55 1/56/56 20/57/57
f 21/58/58 3/59/59 20/60/60
f 24/61/61 23/62/62 22/63/63
f 25/64/64 24/65/65 22/66/66
f 28/67/67 27/68/68 26/69/69
f 29/70/70 28/71/71 26/72/72
f 21/73/73 20/74/74 27/75/75
f 28/76/76 21/77/77 27/78/78
f 12/79/79 10/80/80 30/81/81
f 31/82/82 12/83/83 30/84/84
f 13/85/85 12/86/86 31/87/87
f 32/88/88 13/89/89 31/90/90
f 33/91/91 24/92/92 25/93/93
f 34/94/94 33/95/95 25/96/96
f 35/97/97 28/98/98 29/99/99
f 36/100/100 35/101/101 29/102/102
f 37/103/103 21/104/104 28/105/105
f 35/106/106 37/107/107 28/108/108
f 4/109/109 3/110/110 21/111/111
f 37/112/112 4/113/113 21/114/114
f 5/115/115 4/116/116 37/117/117
f 38/118/118 5/119/119 37/120/120
f 39/121/121 33/122/122 34/123/123
f 40/124/124 39/125/125 34/126/126
f 41/127/127 35/128/128 36/129/129
f 42/130/130 41/131/131 36/132/132
f 38/133/133 37/134/134 35/135/135
f 41/136/136 38/137/137 35/138/138
f 14/139/139 17/140/140 19/141/141
f 43/142/142 14/143/143 19/144/144
f 6/145/145 5/146/146 38/147/147
f 44/148/148 6/149/149 38/150/150
f 45/151/151 39/152/152 40/153/153
f 46/154/154 45/155/155 40/156/156
f 47/157/157 41/158/158 42/159/159
f 48/160/160 47/161/161 42/162/162
f 44/163/163 38/164/164 41/165/165
f 47/166/166 44/167/167 41/168/168
f 15/169/169 13/170/170 32/171/171
f 49/172/172 15/173/173 32/174/174
f 7/175/175 6/176/176 44/177/177
f 50/178/178 7/179/179 44/180/180
f 51/181/181 45/182/182 46/183/183
f 52/184/184 51/185/185 46/186/186
f 53/187/187 47/188/188 48/189/189
f 54/190/190 53/191/191 48/192/192
f 50/193/193 44/194/194 47/195/195
f 53/196/196 50/197/197 47/198/198
f 1/199/199 11/200/200 55/201/201
f 20/202/202 1/203/203 55/204/204
f 8/205/205 7/206/206 50/207/207
f 56/208/208 8/209/209 50/210/210
f 57/211/211 51/212/212 52/213/213
f 58/214/214 57/215/215 52/216/216
f 59/217/217 53/218/218 54/219/219
f 60/220/220 59/221/221 54/222/222
f 56/223/223 50/224/224 53/225/225
f 59/226/226 56/227/227 53/228/228
f 16/229/229 15/230/230 49/231/231
f 18/232/232 16/233/233 49/234/234
f 9/235/235 8/236/236 56/237/237
f 61/238/238 9/239/239 56/240/240
f 62/241/241 57/242/242 58/243/243
f 63/244/244 62/245/245 58/246/246
f 64/247/247 59/248/248 60/249/249
f 65/250/250 64/251/251 60/252/252
f 61/253/253 56/254/254 59/255/255
f 64/256/256 61/257/257 59/258/258
f 11/259/259 14/260/260 43/261/261
f 55/262/262 11/263/263 43/264/264
f 10/265/265 9/266/266 61/267/267
f 30/268/268 10/269/269 61/270/270
f 66/271/271 62/272/272 63/273/273
f 67/274/274 66/275/275 63/276/276
f 68/277/277 64/278/278 65/279/279
f 69/280/280 68/281/281 65/282/282
f 30/283/283 61/284/284 64/285/285
f 68/286/286 30/287/287 64/288/288
f 20/289/289 55/290/290 70/291/291
f 27/292/292 20/293/293 70/294/294
f 71/295/295 66/296/296 67/297/297
f 72/298/298 71/299/299 67/300/300
f 73/301/301 68/302/302 69/303/303
f 74/304/304 73/305/305 69/306/306
f 31/307/307 30/308/308 68/309/309
f 73/310/310 31/311/311 68/312/312
f 27/313/313 70/314/314 75/315/315
f 26/316/316 27/317/317 75/318/318
f 23/319/319 77/320/320 76/321/321
f 22/322/322 23/323/323 76/324/324
f 78/325/325 71/326/326 72/327/327
f 79/328/328 78/329/329 72/330/330
f 80/331/331 73/332/332 74/333/333
f 81/334/334 80/335/335 74/336/336
f 32/337/337 31/338/338 73/339/339
f 80/340/340 32/341/341 73/342/342
f 55/343/343 43/344/344 82/345/345
f 70/346/346 55/347/347 82/348/348
f 83/349/349 78/350/350 79/351/351
f 84/352/352 83/353/353 79/354/354
f 85/355/355 80/356/356 81/357/357
f 86/358/358 85/359/359 81/360/360
f 49/361/361 32/362/362 80/363/363
f 85/364/364 49/365/365 80/366/366
f 70/367/367 82/368/368 87/369/369
f 75/370/370 70/371/371 87/372/372
f 77/373/373 89/374/374 88/375/375
f 76/376/376 77/377/377 88/378/378
f 90/379/379 83/380/380 84/381/381
f 91/382/382 90/383/383 84/384/384
f 92/385/385 85/386/386 86/387/387
f 93/388/388 92/389/389 86/390/390
f 18/391/391 49/392/392 85/393/393
f 92/394/394 18/395/395 85/396/396
f 43/397/397 19/398/398 94/399/399
f 82/400/400 43/401/401 94/402/402
f 95/403/403 90/404/404 91/405/405
f 96/406/406 95/407/407 91/408/408
f 94/409/409 92/410/410 93/411/411
f 97/412/412 94/413/413 93/414/414
f 19/415/415 18/416/416 92/417/417
f 94/418/418 19/419/419 92/420/420
f 82/421/421 94/422/422 97/423/423
f 87/424/424 82/425/425 97/426/426
f 89/427/427 95/428/428 96/429/429
f 88/430/430 89/431/431 96/432/432
