# Blender v2.77 (sub 0) OBJ File: ''
# www.blender.org
mtllib Super Mega Mushroom.mtl
o Mesh_0342
v -0.096423 -0.263917 0.312978
v -0.121996 -0.281081 0.297386
v -0.121996 -0.263917 0.320252
v -0.085831 -0.263917 0.295418
v -0.147568 -0.263917 0.312978
v -0.158160 -0.263917 0.295418
v 0.096423 -0.263917 0.312978
v 0.121996 -0.263917 0.320252
v 0.121996 -0.281081 0.297386
v 0.085831 -0.263917 0.295418
v 0.147568 -0.263917 0.312978
v 0.158160 -0.263917 0.295418
v 0.228200 -0.401423 0.065937
v 0.000000 -0.431528 0.065937
v 0.161362 -0.401423 0.220124
v 0.255010 -0.342019 0.065937
v 0.195835 -0.222771 0.254439
v 0.276953 -0.222771 0.065937
v 0.000000 -0.401423 0.283990
v -0.191375 -0.401423 -0.064073
v 0.000000 -0.401423 -0.152117
v 0.191375 -0.401423 -0.064073
v -0.161362 -0.401423 0.220124
v -0.228200 -0.401423 0.065937
v -0.195835 -0.222771 0.254439
v -0.255010 -0.342019 0.065937
v -0.276953 -0.222771 0.065937
v -0.198275 -0.342019 0.256540
v 0.198275 -0.342019 0.256540
v 0.000000 -0.362769 -0.330266
v 0.000000 -0.392642 -0.151913
v 0.219253 -0.370161 -0.068884
v 0.313411 -0.305501 -0.206433
v 0.184344 -0.250076 0.136071
v 0.130351 -0.163277 0.247663
v 0.212157 -0.147383 0.338716
v 0.300035 -0.281556 0.152620
v 0.443231 -0.159688 0.088554
v 0.313411 0.004670 0.373791
v 0.335756 0.138073 0.336840
v 0.474830 -0.028664 0.019673
v 0.451687 0.130838 -0.064178
v 0.319391 0.289965 0.238514
v 0.389389 0.234477 -0.118662
v 0.275340 0.373813 0.146383
v 0.221985 -0.342019 -0.081401
v 0.000000 -0.128973 0.294754
v 0.000000 -0.096398 0.418214
v 0.000000 0.069798 0.493491
v 0.000000 0.207137 0.468215
v 0.000000 0.355877 0.363892
v 0.000000 0.431528 0.256168
v 0.095616 0.394756 -0.085037
v 0.000000 0.414868 -0.046780
v -0.130351 -0.163277 0.247663
v -0.212157 -0.147383 0.338716
v -0.313411 0.004670 0.373791
v -0.335756 0.138073 0.336840
v -0.319391 0.289965 0.238514
v -0.275340 0.373813 0.146383
v -0.095616 0.394756 -0.085037
v -0.184344 -0.250076 0.136071
v -0.300035 -0.281556 0.152620
v -0.442812 -0.159646 0.088634
v -0.474830 -0.028664 0.019673
v -0.451687 0.130838 -0.064178
v -0.389389 0.234477 -0.118662
v -0.135222 0.346202 -0.177396
v 0.319391 -0.028289 -0.366869
v 0.275340 0.095142 -0.383706
v 0.335756 -0.195401 -0.297493
v 0.000000 0.037427 -0.493491
v 0.000000 -0.094201 -0.492248
v -0.130351 -0.299608 0.004887
v -0.219253 -0.370161 -0.068884
v -0.312993 -0.305458 -0.206352
v -0.335756 -0.195401 -0.297494
v -0.319391 -0.028289 -0.366869
v -0.275340 0.095142 -0.383706
v -0.095616 0.297648 -0.269756
v 0.130351 -0.299608 0.004887
v 0.000000 -0.264466 -0.428868
v -0.221985 -0.342019 -0.081401
v -0.255871 -0.222771 -0.036080
v 0.000000 0.277537 -0.308012
v 0.135222 0.346202 -0.177396
v 0.095616 0.297648 -0.269756
v -0.086280 -0.211030 0.310745
v -0.121996 -0.211030 0.320904
v -0.086280 -0.107950 0.279320
v -0.121996 -0.107950 0.289478
v -0.071486 -0.211030 0.286220
v -0.157711 -0.211030 0.310745
v -0.157711 -0.107950 0.279320
v -0.071486 -0.107950 0.254794
v -0.172505 -0.211030 0.286220
v -0.172505 -0.107950 0.254794
v 0.071486 -0.211030 0.286220
v 0.071486 -0.107950 0.254794
v 0.086280 -0.107950 0.279320
v 0.086280 -0.211030 0.310745
v 0.121996 -0.107950 0.289478
v 0.121996 -0.211030 0.320904
v 0.157711 -0.107950 0.279320
v 0.157711 -0.211030 0.310745
v 0.172505 -0.211030 0.286220
v 0.172505 -0.107950 0.254794
v 0.165170 -0.091162 0.224922
v 0.215806 -0.091162 0.151979
v 0.000000 -0.342019 -0.203617
v 0.000000 -0.342019 0.335490
v 0.000000 -0.222771 0.332519
v 0.000000 -0.091162 0.290776
v -0.165170 -0.091162 0.224922
v 0.255871 -0.222771 -0.036080
v -0.215806 -0.091162 0.151979
vt 0.1678 -0.9795
vt 0.2054 -0.9795
vt 0.2054 -0.8601
vt 0.1678 -0.9795
vt 0.2054 -0.9795
vt 0.1678 -0.9795
vt 0.2054 -0.9795
vt 0.1678 -0.9795
vt 0.2054 -0.9795
vt 0.1678 -0.9795
vt 0.2054 -0.9795
vt 0.2054 -0.8601
vt 0.1678 -0.9795
vt 0.2054 -0.8601
vt 0.1678 -0.9795
vt 0.2054 -0.8601
vt 0.1678 -0.9795
vt 0.2054 -0.8601
vt 0.0548 -0.6138
vt 0.0225 -0.6138
vt 0.0223 -0.7411
vt 0.0917 -0.4689
vt 0.0893 -0.2718
vt 0.0225 -0.2718
vt 0.0548 -0.6138
vt 0.0225 -0.6138
vt 0.0548 -0.6138
vt 0.0225 -0.6138
vt 0.0548 -0.6138
vt 0.0223 -0.7411
vt 0.0548 -0.6138
vt 0.0225 -0.6138
vt 0.0548 -0.6138
vt 0.0225 -0.6138
vt 0.0893 -0.2718
vt 0.0225 -0.2718
vt 0.0225 -0.4689
vt 0.0225 -0.6138
vt 0.0223 -0.7411
vt 0.0548 -0.6138
vt 0.0225 -0.6138
vt 0.0917 -0.4689
vt 0.0225 -0.4689
vt 0.5000 -0.9203
vt 0.7234 -0.9289
vt 0.5000 -0.9549
vt 0.8300 -0.8540
vt 0.3125 -0.1116
vt 0.3862 -0.0268
vt 0.3884 -0.1004
vt 0.3237 -0.0424
vt 0.6521 -0.5119
vt 0.8960 -0.2842
vt 0.8609 -0.5171
vt 0.7050 -0.1353
vt 0.4870 -0.0961
vt 0.4316 -0.5079
vt 0.2504 -0.5076
vt 0.3359 -0.0974
vt 0.3125 -0.1116
vt 0.3862 -0.0268
vt 0.3884 -0.1004
vt 0.3237 -0.0424
vt 0.0548 -0.6138
vt 0.0225 -0.4689
vt 0.0225 -0.6138
vt 0.0917 -0.4689
vt 0.3125 -0.1116
vt 0.3862 -0.0268
vt 0.3884 -0.1004
vt 0.3237 -0.0424
vt 0.9394 -0.7758
vt 0.6094 -0.9554
vt 0.8328 -0.9520
vt 0.6094 -0.7629
vt 0.9245 -0.6888
vt 0.5620 -0.8484
vt 0.8298 -0.8202
vt 0.5620 -0.6890
vt 0.5626 -0.4786
vt 0.9244 -0.4763
vt 0.5617 -0.3298
vt 0.8755 -0.3296
vt 0.7221 -0.1382
vt 0.5617 -0.1164
vt 0.3125 -0.1116
vt 0.3862 -0.0268
vt 0.3884 -0.1004
vt 0.3237 -0.0424
vt 0.3860 -0.9520
vt 0.2794 -0.7758
vt 0.1995 -0.6888
vt 0.3005 -0.8202
vt 0.1996 -0.4763
vt 0.2485 -0.3296
vt 0.3944 -0.1382
vt 0.3125 -0.1116
vt 0.3862 -0.0268
vt 0.3884 -0.1004
vt 0.3237 -0.0424
vt 0.7004 -0.1203
vt 0.8611 -0.5154
vt 0.8857 -0.2498
vt 0.6468 -0.5154
vt 0.4995 -0.0823
vt 0.4355 -0.5081
vt 0.2598 -0.5002
vt 0.3428 -0.1172
vt 0.3125 -0.1116
vt 0.3862 -0.0268
vt 0.3884 -0.1004
vt 0.3237 -0.0424
vt 0.3125 -0.1116
vt 0.3862 -0.0268
vt 0.3884 -0.1004
vt 0.3237 -0.0424
vt 0.3125 -0.1116
vt 0.3862 -0.0268
vt 0.3237 -0.0424
vt 0.4300 -0.9489
vt 0.2805 -0.9192
vt 0.6471 -0.9311
vt 0.8688 -0.7669
vt 0.5615 -0.4026
vt 0.9495 -0.5905
vt 0.5615 -0.5918
vt 0.9071 -0.3986
vt 0.3125 -0.1116
vt 0.3862 -0.0268
vt 0.3884 -0.1004
vt 0.3237 -0.0424
vt 0.8656 -0.7855
vt 0.6468 -0.9038
vt 0.4370 -0.9261
vt 0.2891 -0.8845
vt 0.3125 -0.1116
vt 0.3862 -0.0268
vt 0.3884 -0.1004
vt 0.3125 -0.1116
vt 0.3862 -0.0268
vt 0.3884 -0.1004
vt 0.3125 -0.1116
vt 0.3862 -0.0268
vt 0.3884 -0.1004
vt 0.3237 -0.0424
vt 0.9519 -0.8225
vt 0.5615 -0.8719
vt 0.8536 -0.7264
vt 0.5000 -0.8064
vt 0.0917 -0.4689
vt 0.0225 -0.2718
vt 0.0225 -0.4689
vt 0.0893 -0.2718
vt 0.3125 -0.1116
vt 0.3862 -0.0268
vt 0.3884 -0.1004
vt 0.3237 -0.0424
vt 0.3125 -0.1116
vt 0.3862 -0.0268
vt 0.3884 -0.1004
vt 0.3237 -0.0424
vt 0.1711 -0.8225
vt 0.1735 -0.5905
vt 0.2159 -0.3986
vt 0.3125 -0.1116
vt 0.3884 -0.1004
vt 0.3237 -0.0424
vt 0.5537 -0.1233
vt 0.4122 -0.1422
vt 0.3125 -0.1116
vt 0.3862 -0.0268
vt 0.3884 -0.1004
vt 0.3237 -0.0424
vt 0.6424 -0.0989
vt 0.7899 -0.0669
vt 0.9100 -0.2283
vt 0.6007 -0.0426
vt 0.6780 -0.1422
vt 0.6007 -0.1551
vt 0.5000 -0.1784
vt 0.5000 -0.0193
vt 0.3993 -0.1551
vt 0.1678 -0.9795
vt 0.2054 -0.8601
vt 0.1678 -0.8601
vt 0.2054 -0.9795
vt 0.1678 -0.9795
vt 0.2054 -0.8601
vt 0.1678 -0.8601
vt 0.2054 -0.9795
vt 0.1678 -0.9795
vt 0.2054 -0.8601
vt 0.1678 -0.8601
vt 0.2054 -0.9795
vt 0.1678 -0.9795
vt 0.2054 -0.8601
vt 0.1678 -0.8601
vt 0.2054 -0.9795
vt 0.1678 -0.9795
vt 0.2054 -0.8601
vt 0.1678 -0.8601
vt 0.2054 -0.9795
vt 0.1678 -0.9795
vt 0.2054 -0.8601
vt 0.1678 -0.8601
vt 0.2054 -0.9795
vt 0.1678 -0.9795
vt 0.2054 -0.8601
vt 0.1678 -0.8601
vt 0.2054 -0.9795
vt 0.1678 -0.9795
vt 0.2054 -0.8601
vt 0.1678 -0.8601
vt 0.2054 -0.9795
vt 0.1678 -0.9795
vt 0.2054 -0.8601
vt 0.1678 -0.8601
vt 0.2054 -0.9795
vt 0.2054 -0.8601
vt 0.1678 -0.8601
vt 0.2054 -0.9795
vt 0.1678 -0.9795
vt 0.2054 -0.8601
vt 0.1678 -0.8601
vt 0.2054 -0.9795
vt 0.2054 -0.8601
vt 0.1678 -0.8601
vt 0.2054 -0.9795
vt 0.1678 -0.9795
vt 0.2054 -0.8601
vt 0.1678 -0.8601
vt 0.2054 -0.9795
vt 0.2054 -0.8601
vt 0.1678 -0.8601
vt 0.2054 -0.9795
vt 0.2054 -0.8601
vt 0.1678 -0.8601
vt 0.2054 -0.9795
vt 0.1678 -0.9795
vt 0.2054 -0.8601
vt 0.1678 -0.8601
vt 0.2054 -0.9795
vt 0.0225 -0.0198
vt 0.0586 -0.0198
vt 0.0225 -0.4689
vt 0.0917 -0.4689
vt 0.0548 -0.6138
vt 0.0225 -0.4689
vt 0.0917 -0.4689
vt 0.0225 -0.4689
vt 0.0917 -0.4689
vt 0.0225 -0.2718
vt 0.0893 -0.2718
vt 0.0225 -0.0198
vt 0.0586 -0.0198
vt 0.0225 -0.4689
vt 0.0917 -0.4689
vt 0.0225 -0.2718
vt 0.0893 -0.2718
vt 0.0225 -0.0198
vt 0.0586 -0.0198
vt 0.0225 -0.2718
vt 0.0893 -0.2718
vt 0.0225 -0.0198
vt 0.0586 -0.0198
vn 0.1683 -0.7883 0.5918
vn 0.4258 -0.8676 0.2568
vn -0.1683 -0.7883 0.5918
vn -0.4258 -0.8676 0.2568
vn 0.1306 -0.9898 0.0566
vn 0.9057 -0.1667 0.3898
vn 0.0541 -0.9892 0.1366
vn -0.0628 -0.9886 -0.1365
vn 0.0628 -0.9886 -0.1365
vn -0.0541 -0.9892 0.1366
vn -0.1306 -0.9898 0.0566
vn -0.9057 -0.1667 0.3898
vn 0.1307 -0.9907 -0.0370
vn -0.1307 -0.9907 -0.0370
vn -0.9582 0.0246 0.2852
vn 0.9582 0.0246 0.2852
vn 0.2232 -0.9614 -0.1610
vn 0.1949 -0.9461 -0.2587
vn 0.1615 -0.9733 -0.1630
vn 0.2438 -0.9537 -0.1761
vn 0.2695 -0.9293 -0.2524
vn 0.2355 -0.9316 -0.2768
vn -0.3131 -0.8171 0.4840
vn -0.3360 -0.8292 0.4467
vn -0.3550 -0.8134 0.4609
vn -0.2936 -0.8273 0.4789
vn -0.2938 -0.8358 0.4639
vn -0.3261 -0.8331 0.4467
vn 0.6607 -0.4675 0.5874
vn 0.5939 -0.4930 0.6358
vn 0.6500 -0.4368 0.6219
vn 0.6531 -0.4885 0.5787
vn 0.6056 -0.5385 0.5859
vn 0.5844 -0.5307 0.6139
vn 0.9086 -0.0069 0.4175
vn 0.9064 -0.0353 0.4209
vn 0.9026 -0.0322 0.4294
vn 0.9115 -0.0036 0.4112
vn 0.9143 -0.0076 0.4049
vn 0.9091 -0.0318 0.4153
vn 0.9259 0.2721 0.2621
vn 0.9258 0.2709 0.2636
vn 0.9256 0.2724 0.2627
vn 0.9261 0.2715 0.2621
vn 0.9263 0.2700 0.2629
vn 0.9260 0.2703 0.2635
vn 0.8354 0.5438 0.0792
vn 0.8422 0.5329 0.0823
vn 0.8457 -0.4769 -0.2395
vn 0.8900 -0.4018 -0.2154
vn 0.8825 -0.3983 -0.2500
vn 0.8402 -0.4965 -0.2181
vn 0.8490 -0.4930 -0.1903
vn 0.8852 -0.4206 -0.1985
vn -0.1483 -0.9484 0.2803
vn -0.1398 -0.9574 0.2526
vn -0.1602 -0.9544 0.2518
vn -0.1341 -0.9488 0.2861
vn -0.1246 -0.9524 0.2782
vn -0.1337 -0.9572 0.2568
vn 0.2576 -0.3767 0.8898
vn 0.2390 -0.3913 0.8887
vn 0.2465 -0.3707 0.8955
vn 0.2594 -0.3822 0.8869
vn 0.2536 -0.3991 0.8811
vn 0.2442 -0.4001 0.8833
vn 0.3886 0.1849 0.9026
vn 0.3823 0.1711 0.9080
vn 0.3841 0.1862 0.9043
vn 0.3904 0.1813 0.9026
vn 0.3888 0.1668 0.9061
vn 0.3847 0.1670 0.9078
vn 0.4027 0.5261 0.7491
vn 0.4018 0.5277 0.7484
vn 0.4025 0.5276 0.7481
vn 0.4022 0.5257 0.7496
vn 0.4016 0.5259 0.7498
vn 0.4015 0.5274 0.7488
vn 0.3714 0.7615 0.5311
vn 0.3661 0.7687 0.5245
vn 0.3694 0.7684 0.5226
vn 0.3698 0.7603 0.5340
vn 0.3670 0.7613 0.5346
vn 0.3651 0.7676 0.5267
vn 0.1841 0.9814 -0.0542
vn 0.1848 0.9813 -0.0540
vn 0.1843 0.9814 -0.0540
vn 0.1545 -0.9516 0.2657
vn 0.1282 -0.9511 0.2812
vn 0.1428 -0.9453 0.2933
vn 0.1478 -0.9563 0.2523
vn 0.1355 -0.9580 0.2528
vn 0.1265 -0.9534 0.2737
vn -0.2499 -0.3994 0.8820
vn -0.2433 -0.3794 0.8926
vn -0.2354 -0.4010 0.8853
vn -0.2548 -0.3955 0.8824
vn -0.2606 -0.3784 0.8882
vn -0.2527 -0.3742 0.8923
vn -0.3823 0.1711 0.9080
vn -0.3886 0.1849 0.9026
vn -0.3841 0.1862 0.9043
vn -0.3847 0.1670 0.9078
vn -0.3888 0.1668 0.9061
vn -0.3904 0.1813 0.9026
vn -0.4015 0.5263 0.7495
vn -0.4021 0.5277 0.7483
vn -0.4014 0.5278 0.7485
vn -0.4019 0.5258 0.7497
vn -0.4026 0.5256 0.7494
vn -0.4026 0.5272 0.7484
vn -0.3666 0.7624 0.5332
vn -0.3676 0.7685 0.5237
vn -0.3648 0.7688 0.5252
vn -0.3683 0.7608 0.5343
vn -0.3719 0.7596 0.5335
vn -0.3700 0.7665 0.5250
vn -0.1843 0.9814 -0.0543
vn -0.1847 0.9813 -0.0542
vn -0.1846 0.9813 -0.0545
vn -0.1842 0.9814 -0.0540
vn -0.1845 0.9813 -0.0539
vn 0.3359 -0.8153 0.4716
vn 0.2937 -0.8327 0.4694
vn 0.2934 -0.8182 0.4945
vn 0.3433 -0.8232 0.4522
vn 0.3319 -0.8325 0.4435
vn 0.2998 -0.8354 0.4607
vn -0.5977 -0.5357 0.5965
vn -0.6291 -0.4585 0.6277
vn -0.5618 -0.5221 0.6417
vn -0.6166 -0.5280 0.5840
vn -0.6646 -0.4761 0.5759
vn -0.6568 -0.4526 0.6031
vn -0.9030 -0.0326 0.4285
vn -0.9139 -0.0097 0.4058
vn -0.9258 0.2709 0.2636
vn -0.9259 0.2721 0.2620
vn -0.9256 0.2724 0.2627
vn -0.9260 0.2703 0.2635
vn -0.9263 0.2700 0.2629
vn -0.9261 0.2715 0.2621
vn -0.8413 0.5340 0.0837
vn -0.8361 0.5426 0.0802
vn -0.8402 0.5355 0.0857
vn -0.8411 0.5349 0.0807
vn -0.8368 0.5424 0.0749
vn -0.8358 0.5435 0.0780
vn -0.4385 0.8593 -0.2631
vn -0.4386 0.8592 -0.2636
vn -0.4385 0.8594 -0.2631
vn -0.4387 0.8593 -0.2630
vn 0.8395 0.2346 -0.4902
vn 0.8362 0.2447 -0.4908
vn 0.8354 0.2431 -0.4929
vn 0.8407 0.2334 -0.4886
vn 0.8422 0.2343 -0.4856
vn 0.8379 0.2434 -0.4885
vn 0.9258 -0.0635 -0.3726
vn 0.9258 -0.0617 -0.3729
vn 0.9256 -0.0619 -0.3733
vn 0.9260 -0.0638 -0.3721
vn 0.9263 -0.0635 -0.3715
vn 0.9261 -0.0619 -0.3722
vn 0.9083 -0.3603 -0.2127
vn 0.9098 -0.3458 -0.2295
vn 0.9053 -0.3643 -0.2183
vn 0.9103 -0.3552 -0.2124
vn 0.9143 -0.3379 -0.2233
vn 0.9121 -0.3402 -0.2287
vn 0.6454 -0.7607 0.0690
vn 0.6646 -0.7439 0.0705
vn 0.6619 -0.7474 0.0576
vn 0.6425 -0.7619 0.0816
vn 0.6484 -0.7561 0.0884
vn 0.6623 -0.7452 0.0768
vn 0.3698 -0.0088 -0.9291
vn 0.3652 0.0013 -0.9309
vn 0.3670 -0.0088 -0.9302
vn 0.3714 -0.0058 -0.9285
vn 0.3694 0.0051 -0.9292
vn 0.3661 0.0038 -0.9306
vn 0.2965 -0.8467 0.4418
vn 0.2995 -0.8435 0.4459
vn 0.3022 -0.8440 0.4431
vn 0.2939 -0.8468 0.4433
vn 0.2938 -0.8457 0.4455
vn 0.2982 -0.8437 0.4463
vn -0.6657 -0.7430 0.0696
vn -0.6465 -0.7598 0.0682
vn -0.6629 -0.7465 0.0569
vn -0.6634 -0.7444 0.0760
vn -0.6496 -0.7553 0.0875
vn -0.6438 -0.7610 0.0808
vn -0.9127 -0.3414 -0.2247
vn -0.9059 -0.3618 -0.2199
vn -0.9102 -0.3439 -0.2306
vn -0.9130 -0.3437 -0.2196
vn -0.9089 -0.3609 -0.2088
vn -0.9065 -0.3644 -0.2135
vn -0.9257 -0.0624 -0.3731
vn -0.9261 -0.0637 -0.3719
vn -0.9259 -0.0639 -0.3724
vn -0.9258 -0.0617 -0.3730
vn -0.9260 -0.0614 -0.3724
vn -0.9262 -0.0629 -0.3717
vn -0.8362 0.2415 -0.4924
vn -0.8413 0.2338 -0.4874
vn -0.8402 0.2330 -0.4897
vn -0.8358 0.2438 -0.4919
vn -0.8368 0.2458 -0.4893
vn -0.8411 0.2367 -0.4864
vn -0.4388 0.7038 -0.5587
vn -0.4387 0.7042 -0.5583
vn -0.4391 0.7039 -0.5583
vn -0.4388 0.7037 -0.5588
vn -0.4385 0.7039 -0.5588
vn -0.4385 0.7042 -0.5584
vn -0.2995 -0.8453 0.4424
vn -0.2938 -0.8462 0.4446
vn -0.2938 -0.8480 0.4411
vn -0.3005 -0.8437 0.4448
vn -0.2989 -0.8434 0.4464
vn -0.2947 -0.8453 0.4457
vn 0.4023 -0.3194 -0.8580
vn 0.4015 -0.3178 -0.8590
vn 0.4016 -0.3195 -0.8583
vn 0.4027 -0.3189 -0.8580
vn 0.4025 -0.3171 -0.8587
vn 0.4017 -0.3173 -0.8590
vn 0.3789 -0.6510 -0.6578
vn 0.3884 -0.6328 -0.6699
vn 0.3816 -0.6339 -0.6727
vn 0.3824 -0.6544 -0.6524
vn 0.3887 -0.6525 -0.6505
vn 0.3912 -0.6358 -0.6654
vn -0.9597 -0.1811 -0.2151
vn -0.9591 -0.1942 -0.2060
vn -0.9579 -0.1906 -0.2147
vn -0.9614 -0.1769 -0.2106
vn -0.9638 -0.1773 -0.1992
vn -0.9617 -0.1889 -0.1987
vn -0.2564 -0.9301 -0.2629
vn -0.1766 -0.9626 -0.2056
vn -0.2080 -0.9320 -0.2969
vn -0.2646 -0.9350 -0.2361
vn -0.2389 -0.9577 -0.1604
vn -0.1988 -0.9666 -0.1619
vn -0.3884 -0.6341 -0.6686
vn -0.3795 -0.6511 -0.6573
vn -0.3821 -0.6350 -0.6714
vn -0.3910 -0.6369 -0.6645
vn -0.3887 -0.6525 -0.6505
vn -0.3827 -0.6542 -0.6523
vn -0.4015 -0.3178 -0.8590
vn -0.4022 -0.3194 -0.8580
vn -0.4016 -0.3195 -0.8583
vn -0.4018 -0.3173 -0.8590
vn -0.4025 -0.3171 -0.8587
vn -0.4026 -0.3189 -0.8580
vn -0.3652 0.0013 -0.9309
vn -0.3698 -0.0088 -0.9291
vn -0.3670 -0.0088 -0.9302
vn -0.3661 0.0038 -0.9306
vn -0.3694 0.0051 -0.9292
vn -0.3714 -0.0058 -0.9285
vn -0.0000 0.8851 -0.4653
vn -0.1842 0.6009 -0.7778
vn -0.1842 0.6011 -0.7777
vn -0.1846 0.6013 -0.7774
vn 0.4388 0.7037 -0.5588
vn 0.4385 0.7042 -0.5584
vn 0.4385 0.7039 -0.5588
vn 0.4388 0.7038 -0.5587
vn 0.4391 0.7039 -0.5583
vn 0.4387 0.7042 -0.5583
vn 0.4386 0.8592 -0.2634
vn 0.4385 0.8594 -0.2631
vn 0.4388 0.8591 -0.2634
vn 0.4391 0.8590 -0.2633
vn 0.4388 0.8592 -0.2630
vn 0.1842 0.6009 -0.7778
vn 0.1846 0.6013 -0.7774
vn 0.1842 0.6011 -0.7777
vn 0.2736 -0.0119 0.9618
vn 0.2625 0.2814 0.9230
vn 0.8477 -0.1410 0.5113
vn 0.8477 -0.1410 0.5114
vn -0.2736 -0.0119 0.9618
vn -0.2625 0.2814 0.9230
vn 0.8458 0.1556 0.5102
vn 0.8459 0.1555 0.5102
vn -0.8477 -0.1410 0.5113
vn -0.8477 -0.1410 0.5114
vn -0.8459 0.1556 0.5102
vn 0.8242 -0.4393 0.3573
vn 0.7489 -0.6157 0.2452
vn 0.7116 -0.6313 0.3085
vn 0.8624 -0.3892 0.3237
vn 0.8797 -0.3970 0.2618
vn 0.7765 -0.5862 0.2312
vn 0.9034 0.1812 0.3887
vn 0.8198 0.3004 0.4875
vn 0.8792 0.2897 0.3783
vn 0.9014 0.1543 0.4046
vn 0.8214 0.0088 0.5702
vn 0.7997 0.2288 0.5552
vn -0.3682 -0.4731 -0.8004
vn -0.3713 -0.6082 -0.7016
vn -0.3283 -0.6187 -0.7137
vn -0.4030 -0.4415 -0.8017
vn -0.4307 -0.4501 -0.7823
vn -0.3896 -0.5893 -0.7077
vn 0.3384 -0.5869 -0.7356
vn 0.4175 -0.4461 -0.7916
vn 0.3767 -0.4330 -0.8189
vn 0.3549 -0.6124 -0.7064
vn 0.3841 -0.6048 -0.6976
vn 0.4256 -0.4701 -0.7732
vn 0.2873 -0.6249 0.7259
vn 0.2876 -0.6274 0.7237
vn 0.2865 -0.6276 0.7239
vn 0.2882 -0.6242 0.7262
vn 0.2890 -0.6244 0.7257
vn 0.2882 -0.6268 0.7239
vn 0.3699 0.0237 0.9288
vn 0.3698 0.0231 0.9288
vn 0.3699 0.0239 0.9287
vn 0.3702 0.0239 0.9286
vn 0.3702 0.0235 0.9286
vn 0.3553 0.2826 0.8910
vn -0.2868 -0.6268 0.7245
vn -0.2886 -0.6243 0.7259
vn -0.2876 -0.6241 0.7265
vn -0.2873 -0.6274 0.7237
vn -0.2881 -0.6273 0.7235
vn -0.2889 -0.6248 0.7254
vn -0.3698 0.0234 0.9288
vn -0.3698 0.0239 0.9288
vn -0.3698 0.0232 0.9288
vn -0.3703 0.0231 0.9286
vn -0.3702 0.0237 0.9286
vn -0.3553 0.2826 0.8910
vn 0.9584 -0.1881 -0.2148
vn 0.9628 -0.1771 -0.2040
vn 0.9604 -0.1767 -0.2153
vn 0.9582 -0.1916 -0.2123
vn 0.9600 -0.1974 -0.1984
vn 0.9629 -0.1825 -0.1990
vn -0.7453 -0.5831 0.3231
vn -0.8712 -0.3932 0.2938
vn -0.8477 -0.3826 0.3675
vn -0.7341 -0.6225 0.2713
vn -0.7592 -0.6103 0.2260
vn -0.8625 -0.4361 0.2567
vn -0.8883 0.2547 0.3823
vn -0.8787 0.1036 0.4660
vn -0.9058 0.1660 0.3898
vn -0.8608 0.2938 0.4155
vn -0.7825 0.3042 0.5432
vn -0.8096 0.1693 0.5620
vn -0.8725 -0.4216 -0.2471
vn -0.8449 -0.4947 -0.2034
vn -0.8340 -0.4987 -0.2362
vn -0.8869 -0.4003 -0.2306
vn -0.8930 -0.4030 -0.2002
vn -0.8572 -0.4777 -0.1921
usemtl Tex_0168_0_png
s 1
f 1/1/1 3/2/1 2/3/1
f 4/4/2 1/5/2 2/3/2
f 3/6/3 5/7/3 2/3/3
f 5/8/4 6/9/4 2/3/4
f 7/10/3 9/11/3 8/12/3
f 10/13/4 9/11/4 7/14/4
f 11/15/2 9/11/2 12/16/2
f 8/17/1 9/11/1 11/18/1
f 13/19/5 15/20/5 14/21/5
f 16/22/6 18/23/6 17/24/6
f 15/25/7 19/26/7 14/21/7
f 20/27/8 21/28/8 14/21/8
f 14/29/9 21/28/9 22/30/9
f 19/31/10 23/32/10 14/21/10
f 23/33/11 24/34/11 14/21/11
f 25/35/12 27/36/12 26/37/12
f 14/29/13 22/38/13 13/39/13
f 24/40/14 20/41/14 14/21/14
f 26/37/15 28/42/15 25/35/15
f 17/24/16 29/43/16 16/22/16
f 30/44/17 32/45/18 31/46/19
f 30/44/20 33/47/21 32/45/22
f 34/48/23 36/49/24 35/50/25
f 34/48/26 37/51/27 36/49/28
f 38/52/29 36/53/30 37/54/31
f 38/52/32 39/55/33 36/53/34
f 38/52/35 40/56/36 39/55/37
f 38/52/38 41/57/39 40/56/40
f 42/58/41 40/56/42 41/57/43
f 42/58/44 43/59/45 40/56/46
f 44/60/47 43/61/47 42/62/47
f 44/60/48 45/63/48 43/61/48
f 22/64/49 16/65/50 13/66/51
f 22/64/52 46/67/53 16/65/54
f 35/68/55 48/69/56 47/70/57
f 35/68/58 36/71/59 48/69/60
f 39/72/61 48/73/62 36/74/63
f 39/72/64 49/75/65 48/73/66
f 40/76/67 49/77/68 39/78/69
f 40/76/70 50/79/71 49/77/72
f 51/80/73 40/76/74 43/81/75
f 51/80/76 50/79/77 40/76/78
f 52/82/79 43/81/80 45/83/81
f 52/82/82 51/80/83 43/81/84
f 53/84/85 52/82/85 45/83/85
f 53/84/86 54/85/86 52/82/87
f 47/86/88 56/87/89 55/88/90
f 47/86/91 48/89/92 56/87/93
f 49/75/94 56/90/95 48/73/96
f 49/75/97 57/91/98 56/90/99
f 49/77/100 58/92/101 57/93/102
f 49/77/103 50/79/104 58/92/105
f 50/79/106 59/94/107 58/92/108
f 50/79/109 51/80/110 59/94/111
f 51/80/112 60/95/113 59/94/114
f 51/80/115 52/82/116 60/95/117
f 60/95/118 54/85/119 61/96/120
f 60/95/121 52/82/121 54/85/122
f 55/97/123 63/98/124 62/99/125
f 55/97/126 56/100/127 63/98/128
f 57/101/129 63/102/130 56/103/131
f 57/101/132 64/104/133 63/102/134
f 58/105/135 64/104/135 57/101/135
f 58/105/136 65/106/136 64/104/136
f 58/105/137 66/107/138 65/106/139
f 58/105/140 59/108/141 66/107/142
f 60/109/143 66/110/144 59/111/145
f 60/109/146 67/112/147 66/110/148
f 67/113/149 61/114/150 68/115/150
f 67/113/151 60/116/152 61/114/152
f 69/117/153 44/118/154 42/62/155
f 69/117/156 70/119/157 44/118/158
f 71/120/159 42/58/160 41/57/161
f 71/120/162 69/121/163 42/58/164
f 71/120/165 38/52/166 33/122/167
f 71/120/168 41/57/169 38/52/170
f 32/123/171 38/52/172 37/54/173
f 32/123/174 33/122/175 38/52/176
f 72/124/177 69/125/178 73/126/179
f 72/124/180 70/127/181 69/125/182
f 62/128/183 75/129/184 74/130/185
f 62/128/186 63/131/187 75/129/188
f 64/104/189 75/132/190 63/102/191
f 64/104/192 76/133/193 75/132/194
f 65/106/195 76/133/196 64/104/197
f 65/106/198 77/134/199 76/133/200
f 65/106/201 78/135/202 77/134/203
f 65/106/204 66/107/205 78/135/206
f 66/136/207 79/137/208 78/138/209
f 66/136/210 67/112/211 79/137/212
f 79/139/213 68/140/214 80/141/215
f 79/139/216 67/112/217 68/140/218
f 81/142/219 37/143/220 34/144/221
f 81/142/222 32/145/223 37/143/224
f 73/126/225 71/146/226 82/147/227
f 73/126/228 69/125/229 71/146/230
f 30/44/231 71/148/232 33/47/233
f 30/44/234 82/149/235 71/148/236
f 26/150/237 84/151/238 83/152/239
f 26/150/240 27/153/241 84/151/242
f 76/154/243 31/155/244 75/156/245
f 76/154/246 30/157/247 31/155/248
f 77/158/249 30/159/250 76/160/251
f 77/158/252 82/161/253 30/159/254
f 77/162/255 73/126/256 82/147/257
f 77/162/258 78/163/259 73/126/260
f 78/163/261 72/124/262 73/126/263
f 78/163/264 79/164/265 72/124/266
f 80/165/267 61/114/267 54/166/267
f 80/165/267 68/167/267 61/114/267
f 79/164/268 85/168/268 72/124/268
f 79/164/269 80/169/270 85/168/270
f 70/170/271 86/171/272 44/172/273
f 70/170/274 87/173/275 86/171/276
f 86/174/277 45/175/278 44/176/278
f 86/174/279 53/177/280 45/175/281
f 85/168/282 70/127/282 72/124/282
f 85/168/283 87/178/283 70/127/284
f 53/177/267 87/179/267 85/180/267
f 53/177/267 86/174/267 87/179/267
f 54/181/267 85/180/267 80/182/267
f 54/181/267 53/177/267 85/180/267
f 88/183/285 3/184/285 1/185/285
f 88/183/285 89/186/285 3/184/285
f 90/187/286 89/188/286 88/189/286
f 90/187/286 91/190/286 89/188/286
f 92/191/287 1/192/287 4/193/287
f 92/191/288 88/194/288 1/192/288
f 89/195/289 5/196/289 3/197/289
f 89/195/289 93/198/289 5/196/289
f 91/199/290 93/200/290 89/201/290
f 91/199/290 94/202/290 93/200/290
f 95/203/291 88/204/291 92/205/291
f 95/203/292 90/206/292 88/204/292
f 93/207/293 6/208/293 5/209/293
f 93/207/294 96/210/294 6/208/294
f 94/211/295 96/212/295 93/213/295
f 94/211/295 97/214/295 96/212/295
f 98/215/295 100/216/295 99/217/295
f 98/215/295 101/218/295 100/216/295
f 10/13/294 101/219/294 98/220/294
f 10/13/293 7/221/293 101/219/293
f 101/222/290 102/223/290 100/224/290
f 101/222/290 103/225/290 102/223/290
f 7/10/289 103/226/289 101/227/289
f 7/10/289 8/228/289 103/226/289
f 103/229/286 104/230/286 102/231/286
f 103/229/286 105/232/286 104/230/286
f 8/17/285 105/233/285 103/234/285
f 8/17/285 11/235/285 105/233/285
f 11/15/288 106/236/288 105/237/288
f 11/15/287 12/238/287 106/236/287
f 105/239/292 107/240/292 104/241/292
f 105/239/291 106/242/291 107/240/291
f 13/19/296 29/43/297 15/20/298
f 13/19/299 16/22/300 29/43/301
f 18/23/302 108/243/303 17/24/304
f 18/23/305 109/244/306 108/243/307
f 20/27/308 110/245/309 21/28/310
f 20/27/311 83/246/312 110/245/313
f 21/247/314 46/248/315 22/38/316
f 21/247/317 110/249/318 46/248/319
f 15/25/320 111/250/321 19/26/322
f 15/25/323 29/251/324 111/250/325
f 29/251/326 112/252/327 111/250/327
f 29/251/328 17/253/329 112/252/330
f 17/253/331 113/254/331 112/252/331
f 17/253/331 108/255/331 113/254/331
f 19/31/332 28/256/333 23/32/334
f 19/31/335 111/257/336 28/256/337
f 111/257/338 25/258/339 28/256/339
f 111/257/340 112/259/341 25/258/342
f 112/259/343 114/260/343 25/258/343
f 112/259/343 113/261/343 114/260/343
f 46/67/344 18/262/345 16/65/346
f 46/67/347 115/263/348 18/262/349
f 23/33/350 26/37/351 24/34/352
f 23/33/353 28/42/354 26/37/355
f 25/35/356 116/264/357 27/36/358
f 25/35/359 114/265/360 116/264/361
f 24/40/362 83/152/363 20/41/364
f 24/40/365 26/150/366 83/152/367
